<svg xmlns="http://www.w3.org/2000/svg" viewBox="0 0 64 64" fill="none">
  <defs>
    <linearGradient id="bg" x1="10" y1="8" x2="56" y2="60" gradientUnits="userSpaceOnUse">
      <stop offset="0" stop-color="#19457b"/>
      <stop offset="1" stop-color="#0d1629"/>
    </linearGradient>
  </defs>
  <rect width="64" height="64" rx="16" fill="url(#bg)"/>
  <path d="M32 45c-6.8-3.7-18.6-3.7-25.2 0v7.5c7.4-3.3 18.2-3.3 25.2 0 7-3.3 17.8-3.3 25.2 0V45c-6.6-3.7-18.4-3.7-25.2 0Z" fill="#d07111"/>
  <rect x="30.4" y="46.5" width="3.2" height="4.5" fill="#19457b" opacity="0.28"/>
  <rect x="30" y="26" width="4" height="19" fill="#d07111"/>
  <path d="M32 10 39 17 32 24 25 17 32 10Z" fill="#8ac2ff"/>
  <path d="M24 21 29 26 24 31 19 26 24 21Z" fill="#8ac2ff"/>
  <path d="M40 21 45 26 40 31 35 26 40 21Z" fill="#8ac2ff"/>
  <path d="M16.5 31 19.5 34 16.5 37 13.5 34 16.5 31Z" fill="#cfe8ff"/>
  <path d="M27.5 31 30.5 34 27.5 37 24.5 34 27.5 31Z" fill="#cfe8ff"/>
  <path d="M36.5 31 39.5 34 36.5 37 33.5 34 36.5 31Z" fill="#cfe8ff"/>
  <path d="M47.5 31 50.5 34 47.5 37 44.5 34 47.5 31Z" fill="#cfe8ff"/>
</svg>
