<svg xmlns="http://www.w3.org/2000/svg" viewBox="0 0 720 1080" role="img" aria-labelledby="title desc">
  <title id="title">Book cover placeholder</title>
  <desc id="desc">A stylized placeholder cover used when a book image is unavailable.</desc>
  <defs>
    <linearGradient id="bg" x1="0" x2="1" y1="0" y2="1">
      <stop offset="0%" stop-color="#143a52"/>
      <stop offset="100%" stop-color="#0b1823"/>
    </linearGradient>
    <linearGradient id="panel" x1="0" x2="1" y1="0" y2="1">
      <stop offset="0%" stop-color="#f4efe3"/>
      <stop offset="100%" stop-color="#d7c9a7"/>
    </linearGradient>
  </defs>
  <rect width="720" height="1080" fill="url(#bg)"/>
  <rect x="54" y="54" width="612" height="972" rx="28" fill="none" stroke="#f1d28c" stroke-width="6"/>
  <rect x="98" y="126" width="104" height="828" rx="18" fill="#102434" opacity="0.92"/>
  <rect x="230" y="156" width="392" height="768" rx="24" fill="url(#panel)"/>
  <rect x="254" y="188" width="344" height="180" rx="18" fill="#16384c"/>
  <rect x="278" y="224" width="296" height="16" rx="8" fill="#f4efe3" opacity="0.95"/>
  <rect x="278" y="258" width="250" height="16" rx="8" fill="#f4efe3" opacity="0.75"/>
  <rect x="278" y="292" width="214" height="16" rx="8" fill="#f4efe3" opacity="0.55"/>
  <rect x="278" y="424" width="296" height="14" rx="7" fill="#4d5761" opacity="0.8"/>
  <rect x="278" y="458" width="266" height="14" rx="7" fill="#4d5761" opacity="0.6"/>
  <rect x="278" y="492" width="278" height="14" rx="7" fill="#4d5761" opacity="0.6"/>
  <rect x="278" y="526" width="230" height="14" rx="7" fill="#4d5761" opacity="0.45"/>
  <rect x="278" y="618" width="244" height="20" rx="10" fill="#d06f4b"/>
  <rect x="278" y="660" width="296" height="12" rx="6" fill="#4d5761" opacity="0.45"/>
  <rect x="278" y="690" width="272" height="12" rx="6" fill="#4d5761" opacity="0.45"/>
  <rect x="278" y="720" width="218" height="12" rx="6" fill="#4d5761" opacity="0.45"/>
  <circle cx="150" cy="874" r="42" fill="#d06f4b"/>
  <path d="M132 874h36M150 856v36" stroke="#f4efe3" stroke-width="10" stroke-linecap="round"/>
  <text x="150" y="238" font-family="Georgia, serif" font-size="42" fill="#f4efe3" text-anchor="middle" transform="rotate(-90 150 238)">ISAAC KOI</text>
  <text x="426" y="824" font-family="Georgia, serif" font-size="42" fill="#16384c" text-anchor="middle">Cover unavailable</text>
  <text x="426" y="874" font-family="Arial, sans-serif" font-size="24" fill="#49545f" text-anchor="middle">Local placeholder</text>
</svg>
